<?xml version="1.0" encoding="utf-8"?>
<!-- Generator: Adobe Illustrator 15.0.0, SVG Export Plug-In . SVG Version: 6.00 Build 0)  -->
<!DOCTYPE svg PUBLIC "-//W3C//DTD SVG 1.1//EN" "http://www.w3.org/Graphics/SVG/1.1/DTD/svg11.dtd">
<svg version="1.1" id="Layer_1" xmlns="http://www.w3.org/2000/svg" xmlns:xlink="http://www.w3.org/1999/xlink" x="0px" y="0px"
	 width="82.915px" height="80.634px" viewBox="0 0 82.915 80.634" enable-background="new 0 0 82.915 80.634" xml:space="preserve">
<image overflow="visible" width="133" height="767" xlink:href="C:\Users\exsat\Desktop\icns.jpg"  transform="matrix(1 0 0 1 -184.3887 -162.6157)">
</image>
<line fill="none" stroke="#000000" stroke-width="5" stroke-miterlimit="10" x1="-140.055" y1="374.051" x2="-140.055" y2="386.051"/>
<line fill="none" stroke="#000000" stroke-width="5" stroke-miterlimit="10" x1="-100.722" y1="377.718" x2="-100.722" y2="388.385"/>
<g>
	<g>
		<path fill="none" stroke="#000000" stroke-width="6" stroke-miterlimit="10" d="M62.611,316.051c0,0,0,5.91,0,13.134
			c0,7.225-6.75,13.135-15,13.135H10.895c-8.25,0-15-5.761-15-12.801s0-12.801,0-12.801"/>
	</g>
	
		<line fill="none" stroke="#000000" stroke-width="6" stroke-linecap="round" stroke-miterlimit="10" x1="-9.055" y1="316.051" x2="67.279" y2="316.051"/>
	
		<line fill="none" stroke="#000000" stroke-width="6" stroke-linecap="round" stroke-miterlimit="10" x1="8.945" y1="343.718" x2="8.945" y2="351.051"/>
	
		<line fill="#020202" stroke="#000000" stroke-width="6" stroke-linecap="round" stroke-miterlimit="10" x1="49.612" y1="343.718" x2="49.612" y2="351.051"/>
	<circle fill="#020202" cx="54.068" cy="307.499" r="7.833"/>
	
		<line fill="none" stroke="#000000" stroke-width="6" stroke-linecap="round" stroke-miterlimit="10" x1="3.945" y1="284.051" x2="13.945" y2="274.718"/>
	<path fill="none" stroke="#000000" stroke-width="6" stroke-linecap="round" stroke-miterlimit="10" d="M11.246,285.86"/>
	<path fill="none" stroke="#000000" stroke-width="6" stroke-linecap="round" stroke-miterlimit="10" d="M-3.596,279.093
		c0.666-1.709,3.418-2.959,5.26-2.959c1.875,0,3.705,0.77,5.178,1.707"/>
	
		<line fill="none" stroke="#000000" stroke-width="6" stroke-linecap="round" stroke-miterlimit="10" x1="-4.105" y1="279.385" x2="-4.105" y2="313.301"/>
	<path fill="none" stroke="#000000" stroke-width="6" stroke-linecap="round" stroke-miterlimit="10" d="M44.529,327.968
		c0,0,9.383-5.143,9.691-9.738"/>
</g>
<g>
	<path fill="none" stroke="#000000" stroke-width="6" stroke-linecap="round" stroke-miterlimit="10" d="M9.84,470.403"/>
	<path fill="none" stroke="#000000" stroke-width="6" stroke-linecap="round" stroke-miterlimit="10" d="M30.188,470.403"/>
	<polyline fill="none" stroke="#000000" stroke-width="6" stroke-linecap="round" stroke-miterlimit="10" points="32.02,429.707 
		50.895,429.081 50.895,470.403 32.354,470.403 	"/>
	<polyline fill="none" stroke="#000000" stroke-width="6" stroke-linecap="round" stroke-miterlimit="10" points="9.84,470.403 
		-4.105,470.403 -4.105,452.278 	"/>
	
		<circle fill="none" stroke="#000000" stroke-width="6" stroke-linecap="round" stroke-miterlimit="10" cx="20.294" cy="472.303" r="10.625"/>
	<path fill="none" stroke="#000000" stroke-width="6" stroke-linecap="round" stroke-miterlimit="10" d="M34.197,428.714"/>
	<path fill="none" stroke="#000000" stroke-width="6" stroke-linecap="round" stroke-miterlimit="10" d="M-4.105,452.278
		c0.367-0.734,6.133-6.688,13-5.5h4.875c2.178-3.936,4.434-10.909,18.223-17.118"/>
	<line fill="none" stroke="#000000" stroke-width="6" stroke-miterlimit="10" x1="51.674" y1="415.217" x2="51.674" y2="484.32"/>
	
		<line fill="none" stroke="#000000" stroke-width="6" stroke-linecap="round" stroke-miterlimit="10" x1="33.646" y1="420.653" x2="72.342" y2="408.986"/>
</g>
<g>
	<g>
		<path fill="none" stroke="#000000" stroke-width="6" stroke-linecap="round" stroke-miterlimit="10" d="M55.334,72.634
			c0,2.75-2.25,5-5,5H8c-2.75,0-5-2.25-5-5V32.967c0-2.75,2.25-5,5-5h42.334c2.75,0,5,2.25,5,5V72.634z"/>
	</g>
	<g>
		<g>
			
				<line fill="none" stroke="#000000" stroke-width="6" stroke-linecap="round" stroke-miterlimit="10" x1="7.417" y1="10.933" x2="13.667" y2="3.35"/>
			
				<line fill="none" stroke="#000000" stroke-width="6" stroke-linecap="round" stroke-miterlimit="10" x1="7.417" y1="10.933" x2="13.25" y2="18.933"/>
		</g>
		<g>
			
				<line fill="none" stroke="#000000" stroke-width="6" stroke-linecap="round" stroke-miterlimit="10" x1="52.667" y1="10.583" x2="46.417" y2="3"/>
			
				<line fill="none" stroke="#000000" stroke-width="6" stroke-linecap="round" stroke-miterlimit="10" x1="52.667" y1="10.583" x2="46.833" y2="18.583"/>
		</g>
		
			<line fill="none" stroke="#000000" stroke-width="6" stroke-linecap="round" stroke-miterlimit="10" x1="10.542" y1="10.933" x2="49.542" y2="10.933"/>
	</g>
	<g>
		<g>
			
				<line fill="none" stroke="#000000" stroke-width="6" stroke-linecap="round" stroke-miterlimit="10" x1="71.844" y1="30.177" x2="79.449" y2="36.399"/>
			
				<line fill="none" stroke="#000000" stroke-width="6" stroke-linecap="round" stroke-miterlimit="10" x1="71.844" y1="30.177" x2="63.864" y2="36.039"/>
		</g>
		<g>
			
				<line fill="none" stroke="#000000" stroke-width="6" stroke-linecap="round" stroke-miterlimit="10" x1="72.354" y1="75.425" x2="79.915" y2="69.148"/>
			
				<line fill="none" stroke="#000000" stroke-width="6" stroke-linecap="round" stroke-miterlimit="10" x1="72.354" y1="75.425" x2="64.334" y2="69.62"/>
		</g>
		
			<line fill="none" stroke="#000000" stroke-width="6" stroke-linecap="round" stroke-miterlimit="10" x1="71.854" y1="33.301" x2="71.993" y2="72.301"/>
	</g>
</g>
<g>
	
		<line fill="none" stroke="#000000" stroke-width="6" stroke-linecap="round" stroke-miterlimit="10" x1="1.623" y1="137.009" x2="1.623" y2="186.759"/>
	
		<line fill="none" stroke="#000000" stroke-width="6" stroke-linecap="round" stroke-miterlimit="10" x1="75.373" y1="140.384" x2="75.373" y2="186.759"/>
	
		<line fill="none" stroke="#000000" stroke-width="6" stroke-linecap="round" stroke-miterlimit="10" x1="2.998" y1="148.134" x2="74.623" y2="148.134"/>
	
		<line fill="none" stroke="#000000" stroke-width="6" stroke-linecap="round" stroke-miterlimit="10" x1="2.998" y1="165.884" x2="74.623" y2="165.884"/>
	<g>
		<path fill="none" stroke="#000000" stroke-width="6" stroke-linecap="round" stroke-miterlimit="10" d="M28.373,146.51v-9.5
			c0-2.75,2.25-5,5-5h26.75c2.75,0,5,2.25,5,5v9.5"/>
	</g>
	<ellipse cx="15.453" cy="136.584" rx="7.393" ry="7.25"/>
</g>
</svg>
