<?xml version="1.0" encoding="utf-8"?>
<!-- Generator: Adobe Illustrator 15.0.0, SVG Export Plug-In . SVG Version: 6.00 Build 0)  -->
<!DOCTYPE svg PUBLIC "-//W3C//DTD SVG 1.1//EN" "http://www.w3.org/Graphics/SVG/1.1/DTD/svg11.dtd">
<svg version="1.1" id="Layer_1" xmlns="http://www.w3.org/2000/svg" xmlns:xlink="http://www.w3.org/1999/xlink" x="0px" y="0px"
	 width="82.334px" height="82.333px" viewBox="0 0 82.334 82.333" enable-background="new 0 0 82.334 82.333" xml:space="preserve">
<image overflow="visible" width="133" height="767" xlink:href="C:\Users\exsat\Desktop\icns.jpg"  transform="matrix(1 0 0 1 -172.334 -434.334)">
</image>
<line fill="none" stroke="#000000" stroke-width="5" stroke-miterlimit="10" x1="-128" y1="102.333" x2="-128" y2="114.333"/>
<line fill="none" stroke="#000000" stroke-width="5" stroke-miterlimit="10" x1="-88.667" y1="106" x2="-88.667" y2="116.667"/>
<g>
	<g>
		<path fill="none" stroke="#000000" stroke-width="6" stroke-miterlimit="10" d="M74.666,44.333c0,0,0,5.91,0,13.134
			c0,7.225-6.75,13.135-15,13.135H22.949c-8.25,0-15-5.761-15-12.801s0-12.801,0-12.801"/>
	</g>
	
		<line fill="none" stroke="#000000" stroke-width="6" stroke-linecap="round" stroke-miterlimit="10" x1="3" y1="44.333" x2="79.334" y2="44.333"/>
	
		<line fill="none" stroke="#000000" stroke-width="6" stroke-linecap="round" stroke-miterlimit="10" x1="21" y1="72" x2="21" y2="79.333"/>
	
		<line fill="#020202" stroke="#000000" stroke-width="6" stroke-linecap="round" stroke-miterlimit="10" x1="61.667" y1="72" x2="61.667" y2="79.333"/>
	<circle fill="#020202" cx="66.123" cy="35.78" r="7.833"/>
	
		<line fill="none" stroke="#000000" stroke-width="6" stroke-linecap="round" stroke-miterlimit="10" x1="16" y1="12.333" x2="26" y2="3"/>
	<path fill="none" stroke="#000000" stroke-width="6" stroke-linecap="round" stroke-miterlimit="10" d="M23.301,14.142"/>
	<path fill="none" stroke="#000000" stroke-width="6" stroke-linecap="round" stroke-miterlimit="10" d="M8.459,7.375
		c0.666-1.709,3.418-2.959,5.26-2.959c1.875,0,3.705,0.77,5.178,1.707"/>
	
		<line fill="none" stroke="#000000" stroke-width="6" stroke-linecap="round" stroke-miterlimit="10" x1="7.949" y1="7.667" x2="7.949" y2="41.583"/>
	<path fill="none" stroke="#000000" stroke-width="6" stroke-linecap="round" stroke-miterlimit="10" d="M56.584,56.25
		c0,0,9.383-5.143,9.691-9.738"/>
</g>
<g>
	<path fill="none" stroke="#000000" stroke-width="6" stroke-linecap="round" stroke-miterlimit="10" d="M21.895,198.685"/>
	<path fill="none" stroke="#000000" stroke-width="6" stroke-linecap="round" stroke-miterlimit="10" d="M42.242,198.685"/>
	<polyline fill="none" stroke="#000000" stroke-width="6" stroke-linecap="round" stroke-miterlimit="10" points="44.074,157.988 
		62.949,157.362 62.949,198.685 44.408,198.685 	"/>
	<polyline fill="none" stroke="#000000" stroke-width="6" stroke-linecap="round" stroke-miterlimit="10" points="21.895,198.685 
		7.949,198.685 7.949,180.56 	"/>
	
		<circle fill="none" stroke="#000000" stroke-width="6" stroke-linecap="round" stroke-miterlimit="10" cx="32.349" cy="200.585" r="10.625"/>
	<path fill="none" stroke="#000000" stroke-width="6" stroke-linecap="round" stroke-miterlimit="10" d="M46.252,156.996"/>
	<path fill="none" stroke="#000000" stroke-width="6" stroke-linecap="round" stroke-miterlimit="10" d="M7.949,180.56
		c0.367-0.734,6.133-6.688,13-5.5h4.875c2.178-3.936,4.434-10.909,18.223-17.118"/>
	<line fill="none" stroke="#000000" stroke-width="6" stroke-miterlimit="10" x1="63.729" y1="143.499" x2="63.729" y2="212.602"/>
	
		<line fill="none" stroke="#000000" stroke-width="6" stroke-linecap="round" stroke-miterlimit="10" x1="45.701" y1="148.935" x2="84.396" y2="137.268"/>
</g>
<g>
	<g>
		<path fill="none" stroke="#000000" stroke-width="6" stroke-linecap="round" stroke-miterlimit="10" d="M67.389-199.084
			c0,2.75-2.25,5-5,5H20.055c-2.75,0-5-2.25-5-5v-39.667c0-2.75,2.25-5,5-5h42.334c2.75,0,5,2.25,5,5V-199.084z"/>
	</g>
	<g>
		<g>
			
				<line fill="none" stroke="#000000" stroke-width="6" stroke-linecap="round" stroke-miterlimit="10" x1="19.472" y1="-260.785" x2="25.722" y2="-268.368"/>
			
				<line fill="none" stroke="#000000" stroke-width="6" stroke-linecap="round" stroke-miterlimit="10" x1="19.472" y1="-260.785" x2="25.305" y2="-252.785"/>
		</g>
		<g>
			
				<line fill="none" stroke="#000000" stroke-width="6" stroke-linecap="round" stroke-miterlimit="10" x1="64.722" y1="-261.135" x2="58.472" y2="-268.718"/>
			
				<line fill="none" stroke="#000000" stroke-width="6" stroke-linecap="round" stroke-miterlimit="10" x1="64.722" y1="-261.135" x2="58.888" y2="-253.135"/>
		</g>
		
			<line fill="none" stroke="#000000" stroke-width="6" stroke-linecap="round" stroke-miterlimit="10" x1="22.597" y1="-260.785" x2="61.597" y2="-260.785"/>
	</g>
	<g>
		<g>
			
				<line fill="none" stroke="#000000" stroke-width="6" stroke-linecap="round" stroke-miterlimit="10" x1="83.898" y1="-241.542" x2="91.504" y2="-235.319"/>
			
				<line fill="none" stroke="#000000" stroke-width="6" stroke-linecap="round" stroke-miterlimit="10" x1="83.898" y1="-241.542" x2="75.919" y2="-235.679"/>
		</g>
		<g>
			
				<line fill="none" stroke="#000000" stroke-width="6" stroke-linecap="round" stroke-miterlimit="10" x1="84.409" y1="-196.293" x2="91.97" y2="-202.57"/>
			
				<line fill="none" stroke="#000000" stroke-width="6" stroke-linecap="round" stroke-miterlimit="10" x1="84.409" y1="-196.293" x2="76.389" y2="-202.099"/>
		</g>
		
			<line fill="none" stroke="#000000" stroke-width="6" stroke-linecap="round" stroke-miterlimit="10" x1="83.909" y1="-238.417" x2="84.048" y2="-199.417"/>
	</g>
</g>
<g>
	
		<line fill="none" stroke="#000000" stroke-width="6" stroke-linecap="round" stroke-miterlimit="10" x1="13.678" y1="-134.709" x2="13.678" y2="-84.959"/>
	
		<line fill="none" stroke="#000000" stroke-width="6" stroke-linecap="round" stroke-miterlimit="10" x1="87.428" y1="-131.334" x2="87.428" y2="-84.959"/>
	
		<line fill="none" stroke="#000000" stroke-width="6" stroke-linecap="round" stroke-miterlimit="10" x1="15.053" y1="-123.584" x2="86.678" y2="-123.584"/>
	
		<line fill="none" stroke="#000000" stroke-width="6" stroke-linecap="round" stroke-miterlimit="10" x1="15.053" y1="-105.834" x2="86.678" y2="-105.834"/>
	<g>
		<path fill="none" stroke="#000000" stroke-width="6" stroke-linecap="round" stroke-miterlimit="10" d="M40.428-125.208v-9.5
			c0-2.75,2.25-5,5-5h26.75c2.75,0,5,2.25,5,5v9.5"/>
	</g>
	<ellipse cx="27.508" cy="-135.134" rx="7.393" ry="7.25"/>
</g>
</svg>
