<?xml version="1.0" encoding="utf-8"?>
<!-- Generator: Adobe Illustrator 15.0.0, SVG Export Plug-In . SVG Version: 6.00 Build 0)  -->
<!DOCTYPE svg PUBLIC "-//W3C//DTD SVG 1.1//EN" "http://www.w3.org/Graphics/SVG/1.1/DTD/svg11.dtd">
<svg version="1.1" id="Layer_1" xmlns="http://www.w3.org/2000/svg" xmlns:xlink="http://www.w3.org/1999/xlink" x="0px" y="0px"
	 width="79.75px" height="60.75px" viewBox="0 0 79.75 60.75" enable-background="new 0 0 79.75 60.75" xml:space="preserve">
<image overflow="visible" width="133" height="767" xlink:href="C:\Users\exsat\Desktop\icns.jpg"  transform="matrix(1 0 0 1 -183.0117 -291.625)">
</image>
<line fill="none" stroke="#000000" stroke-width="5" stroke-miterlimit="10" x1="-138.678" y1="245.042" x2="-138.678" y2="257.042"/>
<line fill="none" stroke="#000000" stroke-width="5" stroke-miterlimit="10" x1="-99.345" y1="248.709" x2="-99.345" y2="259.376"/>
<g>
	<g>
		<path fill="none" stroke="#000000" stroke-width="6" stroke-miterlimit="10" d="M63.988,187.042c0,0,0,5.91,0,13.134
			c0,7.225-6.75,13.135-15,13.135H12.271c-8.25,0-15-5.761-15-12.801s0-12.801,0-12.801"/>
	</g>
	
		<line fill="none" stroke="#000000" stroke-width="6" stroke-linecap="round" stroke-miterlimit="10" x1="-7.678" y1="187.042" x2="68.656" y2="187.042"/>
	
		<line fill="none" stroke="#000000" stroke-width="6" stroke-linecap="round" stroke-miterlimit="10" x1="10.322" y1="214.709" x2="10.322" y2="222.042"/>
	
		<line fill="#020202" stroke="#000000" stroke-width="6" stroke-linecap="round" stroke-miterlimit="10" x1="50.989" y1="214.709" x2="50.989" y2="222.042"/>
	<circle fill="#020202" cx="55.445" cy="178.489" r="7.833"/>
	
		<line fill="none" stroke="#000000" stroke-width="6" stroke-linecap="round" stroke-miterlimit="10" x1="5.322" y1="155.042" x2="15.322" y2="145.709"/>
	<path fill="none" stroke="#000000" stroke-width="6" stroke-linecap="round" stroke-miterlimit="10" d="M12.623,156.851"/>
	<path fill="none" stroke="#000000" stroke-width="6" stroke-linecap="round" stroke-miterlimit="10" d="M-2.219,150.084
		c0.666-1.709,3.418-2.959,5.26-2.959c1.875,0,3.705,0.77,5.178,1.707"/>
	
		<line fill="none" stroke="#000000" stroke-width="6" stroke-linecap="round" stroke-miterlimit="10" x1="-2.729" y1="150.376" x2="-2.729" y2="184.292"/>
	<path fill="none" stroke="#000000" stroke-width="6" stroke-linecap="round" stroke-miterlimit="10" d="M45.906,198.959
		c0,0,9.383-5.143,9.691-9.738"/>
</g>
<g>
	<path fill="none" stroke="#000000" stroke-width="6" stroke-linecap="round" stroke-miterlimit="10" d="M11.217,341.394"/>
	<path fill="none" stroke="#000000" stroke-width="6" stroke-linecap="round" stroke-miterlimit="10" d="M31.564,341.394"/>
	<polyline fill="none" stroke="#000000" stroke-width="6" stroke-linecap="round" stroke-miterlimit="10" points="33.396,300.697 
		52.271,300.071 52.271,341.394 33.73,341.394 	"/>
	<polyline fill="none" stroke="#000000" stroke-width="6" stroke-linecap="round" stroke-miterlimit="10" points="11.217,341.394 
		-2.729,341.394 -2.729,323.269 	"/>
	
		<circle fill="none" stroke="#000000" stroke-width="6" stroke-linecap="round" stroke-miterlimit="10" cx="21.671" cy="343.294" r="10.625"/>
	<path fill="none" stroke="#000000" stroke-width="6" stroke-linecap="round" stroke-miterlimit="10" d="M35.574,299.705"/>
	<path fill="none" stroke="#000000" stroke-width="6" stroke-linecap="round" stroke-miterlimit="10" d="M-2.729,323.269
		c0.367-0.734,6.133-6.688,13-5.5h4.875c2.178-3.936,4.434-10.909,18.223-17.118"/>
	<line fill="none" stroke="#000000" stroke-width="6" stroke-miterlimit="10" x1="53.051" y1="286.208" x2="53.051" y2="355.311"/>
	
		<line fill="none" stroke="#000000" stroke-width="6" stroke-linecap="round" stroke-miterlimit="10" x1="35.023" y1="291.644" x2="73.719" y2="279.977"/>
</g>
<g>
	<g>
		<path fill="none" stroke="#000000" stroke-width="6" stroke-linecap="round" stroke-miterlimit="10" d="M56.711-56.375
			c0,2.75-2.25,5-5,5H9.377c-2.75,0-5-2.25-5-5v-39.667c0-2.75,2.25-5,5-5h42.334c2.75,0,5,2.25,5,5V-56.375z"/>
	</g>
	<g>
		<g>
			
				<line fill="none" stroke="#000000" stroke-width="6" stroke-linecap="round" stroke-miterlimit="10" x1="8.794" y1="-118.076" x2="15.044" y2="-125.659"/>
			
				<line fill="none" stroke="#000000" stroke-width="6" stroke-linecap="round" stroke-miterlimit="10" x1="8.794" y1="-118.076" x2="14.627" y2="-110.076"/>
		</g>
		<g>
			
				<line fill="none" stroke="#000000" stroke-width="6" stroke-linecap="round" stroke-miterlimit="10" x1="54.044" y1="-118.426" x2="47.794" y2="-126.009"/>
			
				<line fill="none" stroke="#000000" stroke-width="6" stroke-linecap="round" stroke-miterlimit="10" x1="54.044" y1="-118.426" x2="48.21" y2="-110.426"/>
		</g>
		
			<line fill="none" stroke="#000000" stroke-width="6" stroke-linecap="round" stroke-miterlimit="10" x1="11.919" y1="-118.076" x2="50.919" y2="-118.076"/>
	</g>
	<g>
		<g>
			
				<line fill="none" stroke="#000000" stroke-width="6" stroke-linecap="round" stroke-miterlimit="10" x1="73.221" y1="-98.833" x2="80.826" y2="-92.61"/>
			
				<line fill="none" stroke="#000000" stroke-width="6" stroke-linecap="round" stroke-miterlimit="10" x1="73.221" y1="-98.833" x2="65.241" y2="-92.97"/>
		</g>
		<g>
			
				<line fill="none" stroke="#000000" stroke-width="6" stroke-linecap="round" stroke-miterlimit="10" x1="73.731" y1="-53.584" x2="81.292" y2="-59.861"/>
			
				<line fill="none" stroke="#000000" stroke-width="6" stroke-linecap="round" stroke-miterlimit="10" x1="73.731" y1="-53.584" x2="65.711" y2="-59.39"/>
		</g>
		
			<line fill="none" stroke="#000000" stroke-width="6" stroke-linecap="round" stroke-miterlimit="10" x1="73.231" y1="-95.708" x2="73.37" y2="-56.708"/>
	</g>
</g>
<g>
	
		<line fill="none" stroke="#000000" stroke-width="6" stroke-linecap="round" stroke-miterlimit="10" x1="3" y1="8" x2="3" y2="57.75"/>
	
		<line fill="none" stroke="#000000" stroke-width="6" stroke-linecap="round" stroke-miterlimit="10" x1="76.75" y1="11.375" x2="76.75" y2="57.75"/>
	
		<line fill="none" stroke="#000000" stroke-width="6" stroke-linecap="round" stroke-miterlimit="10" x1="4.375" y1="19.125" x2="76" y2="19.125"/>
	
		<line fill="none" stroke="#000000" stroke-width="6" stroke-linecap="round" stroke-miterlimit="10" x1="4.375" y1="36.875" x2="76" y2="36.875"/>
	<g>
		<path fill="none" stroke="#000000" stroke-width="6" stroke-linecap="round" stroke-miterlimit="10" d="M29.75,17.5V8
			c0-2.75,2.25-5,5-5H61.5c2.75,0,5,2.25,5,5v9.5"/>
	</g>
	<ellipse cx="16.83" cy="7.575" rx="7.393" ry="7.25"/>
</g>
</svg>
