<?xml version="1.0" encoding="utf-8"?>
<!-- Generator: Adobe Illustrator 15.0.0, SVG Export Plug-In . SVG Version: 6.00 Build 0)  -->
<!DOCTYPE svg PUBLIC "-//W3C//DTD SVG 1.1//EN" "http://www.w3.org/Graphics/SVG/1.1/DTD/svg11.dtd">
<svg version="1.1" id="Layer_1" xmlns="http://www.w3.org/2000/svg" xmlns:xlink="http://www.w3.org/1999/xlink" x="0px" y="0px"
	 width="184px" height="53px" viewBox="0 0 184 53" enable-background="new 0 0 184 53" xml:space="preserve">
<g>
	
		<image overflow="visible" opacity="0.24" width="593" height="141" xlink:href="D673B775.png"  transform="matrix(0.24 0 0 0.24 46.5317 7.126)">
	</image>
	<g>
		<g>
			<path fill="#3B3835" d="M67.617,31.924H49.71l-0.119-0.207l15.026-20.64h-1.663h-2.079c-0.713,0-1.392,0.004-2.034,0.015
				c-0.644,0.011-1.154,0.025-1.53,0.044c-0.752,0.04-1.431,0.188-2.035,0.446c-0.604,0.257-1.153,0.583-1.648,0.98
				c-0.236,0.199-0.529,0.47-0.875,0.816c-0.347,0.347-0.699,0.728-1.054,1.144c-0.357,0.416-0.698,0.836-1.025,1.262
				c-0.327,0.427-0.6,0.817-0.816,1.173l-0.327-0.119l2.168-6.324c0.277,0.019,0.782,0.034,1.515,0.043
				c0.731,0.011,1.603,0.021,2.612,0.031c1.01,0.01,2.099,0.014,3.267,0.014h3.534h3.296h2.673l0.089,0.178L53.689,31.39
				c0.99,0.02,1.881,0.03,2.672,0.03h2.405c0.336,0,0.768-0.011,1.292-0.03c0.524-0.02,1.073-0.061,1.648-0.118
				c1.603-0.18,3.043-0.821,4.32-1.932c1.278-1.107,2.41-2.514,3.401-4.219l0.326,0.12L67.617,31.924z"/>
			<path fill="#3B3835" d="M88.851,31.924v-0.297c0.059,0,0.203-0.02,0.432-0.06c0.228-0.039,0.463-0.109,0.714-0.208
				c0.246-0.099,0.463-0.237,0.651-0.416c0.189-0.177,0.283-0.405,0.283-0.682c0-0.179-0.055-0.473-0.164-0.877
				c-0.108-0.405-0.262-0.9-0.46-1.484c-0.197-0.584-0.424-1.232-0.682-1.945c-0.259-0.714-0.535-1.457-0.832-2.228h-7.903
				c-0.297,0.752-0.584,1.469-0.86,2.154c-0.277,0.683-0.555,1.371-0.832,2.063c-0.417,1.069-0.623,1.822-0.623,2.259
				c0,0.255,0.079,0.469,0.237,0.638c0.158,0.169,0.36,0.305,0.608,0.413c0.249,0.11,0.514,0.189,0.802,0.24
				c0.286,0.049,0.56,0.093,0.817,0.133v0.297h-6.326v-0.326c0.515-0.061,0.955-0.198,1.321-0.416
				c0.367-0.217,0.581-0.366,0.639-0.446c0.139-0.138,0.367-0.465,0.683-0.979c0.316-0.514,0.703-1.276,1.158-2.286
				c0.416-0.93,0.88-1.991,1.396-3.179c0.514-1.188,1.043-2.41,1.589-3.667c0.543-1.257,1.083-2.524,1.618-3.801
				c0.535-1.277,1.039-2.47,1.514-3.578l-0.297-0.653c0.357-0.159,0.679-0.347,0.966-0.565c0.287-0.217,0.539-0.445,0.758-0.682
				c0.217-0.238,0.4-0.465,0.549-0.684c0.148-0.218,0.263-0.396,0.341-0.535h0.236c0.616,1.644,1.199,3.203,1.756,4.678
				c0.554,1.474,1.084,2.895,1.589,4.261c0.505,1.365,0.995,2.688,1.47,3.965c0.475,1.276,0.95,2.539,1.424,3.787
				c0.218,0.614,0.422,1.123,0.609,1.528c0.188,0.407,0.401,0.867,0.639,1.382c0.039,0.079,0.129,0.217,0.268,0.416
				c0.138,0.199,0.321,0.401,0.55,0.608c0.227,0.208,0.51,0.392,0.845,0.55c0.337,0.157,0.733,0.247,1.188,0.267v0.356H88.851z
				 M84.958,13.927c-0.118,0.258-0.292,0.664-0.52,1.217c-0.228,0.556-0.509,1.228-0.846,2.019
				c-0.337,0.792-0.708,1.688-1.114,2.688c-0.406,1-0.846,2.084-1.322,3.251h7.396c-0.337-0.891-0.679-1.781-1.025-2.673
				c-0.346-0.89-0.684-1.746-1.011-2.568c-0.326-0.821-0.623-1.574-0.89-2.256C85.359,14.922,85.135,14.363,84.958,13.927"/>
			<path fill="#3B3835" d="M115.695,31.924v-0.297c0.061,0,0.202-0.02,0.431-0.06c0.229-0.039,0.465-0.109,0.714-0.208
				c0.247-0.099,0.465-0.237,0.653-0.416c0.188-0.177,0.281-0.405,0.281-0.682c0-0.179-0.055-0.473-0.163-0.877
				c-0.109-0.405-0.263-0.9-0.46-1.484c-0.198-0.584-0.426-1.232-0.684-1.945c-0.258-0.714-0.534-1.457-0.83-2.228h-7.9
				c-0.297,0.752-0.583,1.469-0.859,2.154c-0.279,0.683-0.557,1.371-0.833,2.063c-0.416,1.069-0.624,1.822-0.624,2.259
				c0,0.255,0.08,0.469,0.238,0.638s0.361,0.305,0.607,0.413c0.248,0.11,0.516,0.189,0.802,0.24c0.288,0.049,0.56,0.093,0.818,0.133
				v0.297h-6.325v-0.326c0.515-0.061,0.953-0.198,1.321-0.416c0.365-0.217,0.578-0.366,0.638-0.446
				c0.138-0.138,0.367-0.465,0.683-0.979c0.317-0.514,0.704-1.276,1.158-2.286c0.418-0.93,0.881-1.991,1.396-3.179
				s1.043-2.41,1.59-3.667c0.544-1.257,1.084-2.524,1.618-3.801c0.535-1.277,1.039-2.47,1.515-3.578l-0.298-0.653
				c0.355-0.159,0.678-0.347,0.965-0.565c0.288-0.217,0.54-0.445,0.76-0.682c0.217-0.238,0.4-0.465,0.547-0.684
				c0.149-0.218,0.262-0.396,0.342-0.535h0.238c0.613,1.644,1.195,3.203,1.752,4.678c0.554,1.474,1.083,2.895,1.589,4.261
				c0.505,1.365,0.995,2.688,1.468,3.965c0.477,1.276,0.952,2.539,1.427,3.787c0.219,0.614,0.421,1.123,0.609,1.528
				c0.188,0.407,0.401,0.867,0.638,1.382c0.04,0.079,0.129,0.217,0.267,0.416c0.14,0.199,0.322,0.401,0.55,0.608
				c0.227,0.208,0.51,0.392,0.847,0.55c0.336,0.157,0.734,0.247,1.188,0.267v0.356H115.695z M111.807,13.927
				c-0.12,0.258-0.293,0.664-0.521,1.217c-0.227,0.556-0.51,1.228-0.846,2.019c-0.337,0.792-0.708,1.688-1.113,2.688
				c-0.406,1-0.846,2.084-1.323,3.251h7.396c-0.336-0.891-0.678-1.781-1.025-2.673c-0.345-0.89-0.681-1.746-1.007-2.568
				c-0.328-0.821-0.625-1.574-0.894-2.256C112.207,14.922,111.984,14.363,111.807,13.927"/>
			<path fill="#3B3835" d="M146.936,31.924c-0.179-0.179-0.308-0.312-0.387-0.399c-0.079-0.09-0.167-0.195-0.266-0.313
				c-0.101-0.12-0.224-0.293-0.371-0.521c-0.149-0.226-0.383-0.567-0.699-1.023c-0.376-0.554-0.708-1.054-0.994-1.5
				c-0.288-0.446-0.578-0.885-0.875-1.322c-0.299-0.433-0.621-0.875-0.968-1.321c-0.346-0.446-0.756-0.945-1.23-1.5
				c-0.397-0.455-0.828-0.88-1.293-1.277c-0.464-0.396-0.955-0.643-1.469-0.743c-0.376-0.078-0.664-0.118-0.86-0.118
				c-0.179,0-0.407-0.01-0.685-0.029v3.354c0,0.951,0.009,1.754,0.03,2.407c0.02,0.635,0.039,1.177,0.06,1.634
				c0.019,0.455,0.128,0.831,0.327,1.127c0.158,0.259,0.464,0.521,0.921,0.789c0.453,0.267,1.089,0.419,1.899,0.459v0.297h-9.502
				v-0.297c0.493-0.079,0.97-0.199,1.425-0.355c0.455-0.158,0.811-0.396,1.069-0.714c0.099-0.118,0.177-0.296,0.237-0.535
				c0.061-0.236,0.104-0.505,0.134-0.801c0.028-0.297,0.054-0.614,0.074-0.95c0.02-0.336,0.028-0.663,0.028-0.98
				c0-0.277,0.006-0.652,0.016-1.129c0.009-0.474,0.021-0.996,0.03-1.559c0.01-0.564,0.015-1.144,0.015-1.738v-1.723v-5.79
				c0-0.357-0.005-0.718-0.015-1.085c-0.01-0.366-0.03-0.713-0.06-1.039c-0.029-0.327-0.08-0.624-0.148-0.892
				c-0.069-0.267-0.164-0.46-0.282-0.579c-0.298-0.316-0.631-0.529-0.994-0.639c-0.367-0.108-0.817-0.203-1.351-0.281v-0.298h1.217
				c0.673,0,1.435-0.005,2.285-0.015s1.703-0.014,2.555-0.014h2.077c1.328,0,2.506,0.039,3.535,0.118
				c1.028,0.08,1.971,0.347,2.82,0.802c0.87,0.456,1.575,1.074,2.11,1.855c0.534,0.784,0.8,1.768,0.8,2.956
				c0,0.732-0.132,1.392-0.4,1.975c-0.268,0.583-0.623,1.099-1.068,1.544c-0.445,0.445-0.965,0.826-1.561,1.143
				c-0.593,0.317-1.216,0.585-1.87,0.803v0.088c0.337,0.178,0.662,0.436,0.982,0.772c0.313,0.336,0.621,0.713,0.92,1.128
				c0.514,0.752,1.073,1.564,1.676,2.437c0.604,0.87,1.144,1.643,1.619,2.315c0.731,1.03,1.445,1.782,2.138,2.258
				c0.693,0.475,1.504,0.782,2.437,0.92v0.297H146.936z M143.996,13.423c-0.496-0.773-1.219-1.387-2.168-1.841
				c-0.474-0.218-0.976-0.376-1.499-0.476c-0.526-0.099-1.075-0.147-1.649-0.147c-0.415,0-0.751,0.009-1.01,0.029
				c-0.256,0.02-0.455,0.04-0.593,0.059c-0.021,0.12-0.04,0.222-0.061,0.313c-0.019,0.089-0.033,0.203-0.044,0.34
				c-0.01,0.139-0.021,0.332-0.029,0.579c-0.011,0.249-0.026,0.601-0.046,1.055c-0.02,0.693-0.033,1.475-0.044,2.346
				c-0.012,0.872-0.015,1.713-0.015,2.524v2.138v1.128c0.813,0,1.57-0.034,2.271-0.104c0.703-0.07,1.381-0.213,2.035-0.431
				c0.634-0.198,1.178-0.465,1.632-0.802c0.456-0.336,0.826-0.717,1.114-1.143c0.288-0.426,0.501-0.886,0.639-1.381
				c0.139-0.494,0.209-1.01,0.209-1.545C144.739,15.075,144.49,14.194,143.996,13.423"/>
			<path fill="#3B3835" d="M171.107,31.924v-0.297c0.06,0,0.203-0.02,0.431-0.06c0.229-0.039,0.466-0.109,0.714-0.208
				c0.245-0.099,0.463-0.237,0.653-0.416c0.188-0.177,0.281-0.405,0.281-0.682c0-0.179-0.056-0.473-0.164-0.877
				c-0.108-0.405-0.262-0.9-0.459-1.484c-0.199-0.584-0.428-1.232-0.684-1.945c-0.258-0.714-0.535-1.457-0.832-2.228h-7.898
				c-0.297,0.752-0.585,1.469-0.86,2.154c-0.277,0.683-0.555,1.371-0.832,2.063c-0.416,1.069-0.625,1.822-0.625,2.259
				c0,0.255,0.08,0.469,0.238,0.638c0.157,0.169,0.361,0.305,0.609,0.413c0.247,0.11,0.514,0.189,0.801,0.24
				c0.288,0.049,0.56,0.093,0.818,0.133v0.297h-6.325v-0.326c0.514-0.061,0.955-0.198,1.319-0.416
				c0.366-0.217,0.58-0.366,0.639-0.446c0.14-0.138,0.367-0.465,0.684-0.979c0.317-0.514,0.703-1.276,1.158-2.286
				c0.416-0.93,0.881-1.991,1.396-3.179s1.045-2.41,1.589-3.667c0.544-1.257,1.085-2.524,1.618-3.801
				c0.536-1.277,1.04-2.47,1.517-3.578l-0.3-0.653c0.357-0.159,0.679-0.347,0.966-0.565c0.288-0.217,0.539-0.445,0.758-0.682
				c0.218-0.238,0.402-0.465,0.549-0.684c0.149-0.218,0.262-0.396,0.341-0.535h0.24c0.613,1.644,1.196,3.203,1.75,4.678
				c0.555,1.474,1.083,2.895,1.589,4.261c0.505,1.365,0.995,2.688,1.469,3.965c0.479,1.276,0.951,2.539,1.427,3.787
				c0.218,0.614,0.42,1.123,0.609,1.528c0.188,0.407,0.4,0.867,0.639,1.382c0.038,0.079,0.128,0.217,0.266,0.416
				c0.141,0.199,0.321,0.401,0.551,0.608c0.227,0.208,0.51,0.392,0.846,0.55c0.336,0.157,0.734,0.247,1.188,0.267v0.356H171.107z
				 M167.217,13.927c-0.118,0.258-0.292,0.664-0.52,1.217c-0.228,0.556-0.51,1.228-0.846,2.019
				c-0.337,0.792-0.707,1.688-1.113,2.688c-0.407,1-0.847,2.084-1.322,3.251h7.395c-0.336-0.891-0.677-1.781-1.025-2.673
				c-0.345-0.89-0.684-1.746-1.007-2.568c-0.328-0.821-0.627-1.574-0.893-2.256C167.619,14.922,167.396,14.363,167.217,13.927"/>
		</g>
	</g>
</g>
<g>
	
		<image overflow="visible" opacity="0.24" width="593" height="98" xlink:href="D673B77C.png"  transform="matrix(0.24 0 0 0.24 46.5322 32.1816)">
	</image>
	<g>
		<g>
			<defs>
				<rect id="SVGID_1_" x="49.532" y="35.182" width="130.245" height="11.409"/>
			</defs>
			<clipPath id="SVGID_2_">
				<use xlink:href="#SVGID_1_"  overflow="visible"/>
			</clipPath>
		</g>
		<g>
			<defs>
				<rect id="SVGID_3_" x="49.532" y="35.182" width="130.245" height="11.409"/>
			</defs>
			<clipPath id="SVGID_4_">
				<use xlink:href="#SVGID_3_"  overflow="visible"/>
			</clipPath>
			
				<linearGradient id="SVGID_5_" gradientUnits="userSpaceOnUse" x1="-158.564" y1="279.4473" x2="-158.1382" y2="279.4473" gradientTransform="matrix(306.0742 0 0 -306.0742 48564.6016 85572.25)">
				<stop  offset="0" style="stop-color:#E7BC55"/>
				<stop  offset="0.999" style="stop-color:#92722F"/>
				<stop  offset="1" style="stop-color:#92722F"/>
			</linearGradient>
			<rect x="49.532" y="35.182" clip-path="url(#SVGID_4_)" fill="url(#SVGID_5_)" width="130.245" height="11.409"/>
		</g>
		<g>
			<defs>
				<rect id="SVGID_6_" x="49.532" y="35.182" width="130.245" height="11.409"/>
			</defs>
			<clipPath id="SVGID_7_">
				<use xlink:href="#SVGID_6_"  overflow="visible"/>
			</clipPath>
		</g>
	</g>
</g>
<g>
	
		<image overflow="visible" opacity="0.24" width="318" height="79" xlink:href="D673B77F.png"  transform="matrix(0.24 0 0 0.24 79.5737 34.4189)">
	</image>
	<g>
		<g>
			<path fill="#FFFFFF" d="M82.574,37.559h2.096c0.775,0,1.411,0.177,1.906,0.527c0.496,0.351,0.744,0.86,0.744,1.529
				c0,0.403-0.104,0.755-0.311,1.057c-0.207,0.3-0.484,0.537-0.832,0.707l1.644,2.876h-1.358l-1.418-2.54h-1.201v2.54h-1.27V37.559z
				 M84.631,38.622h-0.788v2.05h0.808c0.4,0,0.72-0.08,0.96-0.242c0.239-0.161,0.359-0.411,0.359-0.753
				C85.97,38.974,85.524,38.622,84.631,38.622"/>
			<polygon fill="#FFFFFF" points="94.666,44.255 94.666,37.559 98.662,37.559 98.86,38.564 95.936,38.564 95.936,40.366 
				98.12,40.366 98.327,41.379 95.936,41.379 95.936,43.26 99.146,43.26 99.353,44.255 			"/>
			<path fill="#FFFFFF" d="M109.248,37.559l2.6,6.617l-1.279,0.178l-0.6-1.675h-2.542l-0.593,1.576h-1.277l2.609-6.696H109.248z
				 M108.677,39.312l-0.877,2.333h1.772L108.677,39.312z"/>
			<polygon fill="#FFFFFF" points="123.114,44.255 118.692,44.255 118.692,37.559 119.963,37.559 119.963,43.26 122.916,43.26 			
				"/>
			<polygon fill="#FFFFFF" points="134.842,38.564 132.547,38.564 132.547,44.255 131.257,44.255 131.257,38.564 129.221,38.564 
				129.221,37.559 134.635,37.559 			"/>
			<polygon fill="#FFFFFF" points="143.132,44.255 143.132,41.645 140.947,37.785 142.208,37.419 143.762,40.356 145.387,37.559 
				146.735,37.559 144.412,41.694 144.412,44.255 			"/>
		</g>
	</g>
</g>
<g>
	
		<image overflow="visible" opacity="0.24" width="236" height="324" xlink:href="D673B77A.png"  transform="matrix(0.24 0 0 0.24 -4.2974 -14.3325)">
	</image>
	<g>
		<g>
			<defs>
				<rect id="SVGID_8_" x="0.75" y="0" width="39.669" height="52.993"/>
			</defs>
			<clipPath id="SVGID_9_">
				<use xlink:href="#SVGID_8_"  overflow="visible"/>
			</clipPath>
			<g clip-path="url(#SVGID_9_)">
				<defs>
					<path id="SVGID_10_" d="M36.37,0l-0.866,2.772c-3.97,2.321-7.658,3.489-10.656,4.704C7.05,13.696,8.415,18.327,8.481,18.523
						c-2.978-6.273,7.993-9.918,19.831-14.67C32.745,2.203,35.415,0.615,36.37,0"/>
				</defs>
				<clipPath id="SVGID_11_">
					<use xlink:href="#SVGID_10_"  overflow="visible"/>
				</clipPath>
			</g>
			<g clip-path="url(#SVGID_9_)">
				<defs>
					<path id="SVGID_12_" d="M35.111,4.034l-0.838,2.684c-3.179,1.608-6.116,2.577-8.585,3.578
						c-17.8,6.22-16.435,10.851-16.369,11.047c-2.977-6.272,7.994-9.919,19.832-14.67C31.731,5.712,33.715,4.773,35.111,4.034"/>
				</defs>
				<clipPath id="SVGID_13_">
					<use xlink:href="#SVGID_12_"  overflow="visible"/>
				</clipPath>
			</g>
			<g clip-path="url(#SVGID_9_)">
				<defs>
					<path id="SVGID_14_" d="M33.916,7.86l-0.822,2.635c-2.405,1.069-4.632,1.836-6.568,2.621
						c-17.8,6.221-16.435,10.852-16.369,11.047C7.179,17.89,18.15,14.244,29.988,9.493C31.502,8.929,32.811,8.373,33.916,7.86"/>
				</defs>
				<clipPath id="SVGID_15_">
					<use xlink:href="#SVGID_14_"  overflow="visible"/>
				</clipPath>
			</g>
			<g clip-path="url(#SVGID_9_)">
				<defs>
					<path id="SVGID_16_" d="M32.764,11.553l-0.812,2.598c-1.652,0.666-3.196,1.22-4.589,1.785
						c-17.799,6.22-16.434,10.853-16.368,11.049c-2.977-6.274,7.993-9.92,19.832-14.671C31.514,12.057,32.161,11.802,32.764,11.553"
						/>
				</defs>
				<clipPath id="SVGID_17_">
					<use xlink:href="#SVGID_16_"  overflow="visible"/>
				</clipPath>
			</g>
			<g clip-path="url(#SVGID_9_)">
				<defs>
					<path id="SVGID_18_" d="M31.643,15.143l-0.809,2.591c-0.924,0.354-1.805,0.687-2.633,1.022
						C10.401,24.977,11.767,29.61,11.832,29.806C8.856,23.534,19.813,19.89,31.643,15.143"/>
				</defs>
				<clipPath id="SVGID_19_">
					<use xlink:href="#SVGID_18_"  overflow="visible"/>
				</clipPath>
			</g>
			<g clip-path="url(#SVGID_9_)">
				<defs>
					<path id="SVGID_20_" d="M30.519,18.745l-0.799,2.56c-0.23,0.091-0.458,0.18-0.68,0.271C11.24,27.799,12.604,32.43,12.67,32.626
						C9.861,26.704,19.476,23.123,30.519,18.745"/>
				</defs>
				<clipPath id="SVGID_21_">
					<use xlink:href="#SVGID_20_"  overflow="visible"/>
				</clipPath>
			</g>
			<g clip-path="url(#SVGID_9_)">
				<defs>
					<path id="SVGID_22_" d="M29.395,22.341l-0.782,2.505c-16.47,5.996-15.17,10.409-15.104,10.599
						C10.867,29.879,19.21,26.379,29.395,22.341"/>
				</defs>
				<clipPath id="SVGID_23_">
					<use xlink:href="#SVGID_22_"  overflow="visible"/>
				</clipPath>
			</g>
			<g clip-path="url(#SVGID_9_)">
				<defs>
					<path id="SVGID_24_" d="M28.271,25.943l-0.767,2.46c-14.418,5.616-13.221,9.681-13.158,9.863
						C11.876,33.063,19.008,29.665,28.271,25.943"/>
				</defs>
				<clipPath id="SVGID_25_">
					<use xlink:href="#SVGID_24_"  overflow="visible"/>
				</clipPath>
			</g>
			<g clip-path="url(#SVGID_9_)">
				<defs>
					<path id="SVGID_26_" d="M27.141,29.567l-0.765,2.452c-12.338,5.2-11.25,8.893-11.191,9.066
						C12.892,36.258,18.866,32.985,27.141,29.567"/>
				</defs>
				<clipPath id="SVGID_27_">
					<use xlink:href="#SVGID_26_"  overflow="visible"/>
				</clipPath>
			</g>
			<g clip-path="url(#SVGID_9_)">
				<defs>
					<path id="SVGID_28_" d="M25.999,33.223l-0.778,2.496c-10.225,4.731-9.254,8.022-9.198,8.188
						C13.918,39.473,18.784,36.352,25.999,33.223"/>
				</defs>
				<clipPath id="SVGID_29_">
					<use xlink:href="#SVGID_28_"  overflow="visible"/>
				</clipPath>
			</g>
			<g clip-path="url(#SVGID_9_)">
				<defs>
					<path id="SVGID_30_" d="M24.839,36.94l-0.81,2.593c-8.062,4.194-7.221,7.041-7.169,7.193
						C14.956,42.714,18.756,39.779,24.839,36.94"/>
				</defs>
				<clipPath id="SVGID_31_">
					<use xlink:href="#SVGID_30_"  overflow="visible"/>
				</clipPath>
			</g>
			<g clip-path="url(#SVGID_9_)">
				<defs>
					<path id="SVGID_32_" d="M23.646,40.759l-0.862,2.764c-5.824,3.546-5.132,5.887-5.085,6.024
						C16.017,46.004,18.785,43.299,23.646,40.759"/>
				</defs>
				<clipPath id="SVGID_33_">
					<use xlink:href="#SVGID_32_"  overflow="visible"/>
				</clipPath>
			</g>
			<g clip-path="url(#SVGID_9_)">
				<defs>
					<path id="SVGID_34_" d="M22.396,44.768l-0.959,3.071c-3.446,2.696-2.938,4.411-2.899,4.528
						C17.114,49.37,18.876,46.972,22.396,44.768"/>
				</defs>
				<clipPath id="SVGID_35_">
					<use xlink:href="#SVGID_34_"  overflow="visible"/>
				</clipPath>
			</g>
		</g>
		<g>
			<defs>
				<rect id="SVGID_36_" x="0.75" y="0" width="39.669" height="52.993"/>
			</defs>
			<clipPath id="SVGID_37_">
				<use xlink:href="#SVGID_36_"  overflow="visible"/>
			</clipPath>
			<path clip-path="url(#SVGID_37_)" fill="#3B3835" d="M7.305,18.645c-1.4,1.393-2.603,2.975-3.542,4.695
				c-0.937,1.722-1.61,3.583-1.981,5.496c-0.201,0.952-0.307,1.923-0.362,2.893l-0.027,0.729l0.028,0.729
				c0.028,0.484,0.018,0.972,0.077,1.452c0.194,1.933,0.713,3.816,1.451,5.599l0.614,1.312c0.231,0.423,0.488,0.832,0.73,1.249
				c0.229,0.424,0.533,0.802,0.81,1.195l0.422,0.586c0.138,0.196,0.313,0.365,0.467,0.551c0.324,0.356,0.621,0.738,0.966,1.072
				l1.051,0.988c0.358,0.32,0.755,0.596,1.13,0.896c0.193,0.142,0.371,0.308,0.579,0.429l0.61,0.385
				c0.793,0.545,1.671,0.945,2.528,1.375l1.341,0.524c0.112,0.042,0.222,0.092,0.336,0.128l0.347,0.098l0.693,0.192l0.693,0.196
				c0.234,0.048,0.472,0.083,0.708,0.128c0.474,0.071,0.942,0.188,1.42,0.226l1.437,0.104c0.239,0.027,0.479,0.017,0.718,0.009
				l0.72-0.021l0.719-0.019c0.239-0.017,0.477-0.056,0.714-0.083c0.475-0.069,0.956-0.101,1.425-0.198l1.403-0.32
				c0.237-0.044,0.461-0.133,0.688-0.207l0.682-0.229c0.227-0.079,0.458-0.147,0.681-0.235l0.655-0.295l0.657-0.295l0.328-0.148
				l0.313-0.179l1.251-0.716l1.179-0.828c1.531-1.158,2.913-2.522,4.057-4.074c1.114-1.573,2.012-3.292,2.667-5.111
				c0.627-1.83,0.934-3.755,1.031-5.692c0.04-1.938-0.171-3.893-0.714-5.763c-1.006-3.777-3.266-7.187-6.257-9.759
				c1.564,1.203,2.986,2.622,4.117,4.262c0.588,0.805,1.075,1.676,1.538,2.561c0.206,0.454,0.438,0.899,0.611,1.367l0.275,0.7
				l0.237,0.713c0.617,1.908,0.883,3.923,0.894,5.93c-0.047,2.008-0.315,4.02-0.921,5.95c-0.627,1.918-1.531,3.748-2.688,5.409
				c-1.179,1.648-2.614,3.104-4.214,4.348l-1.236,0.886l-1.318,0.762l-0.329,0.19l-0.345,0.159l-0.693,0.315l-0.693,0.315
				c-0.236,0.092-0.479,0.166-0.718,0.251l-0.72,0.246c-0.241,0.079-0.479,0.173-0.728,0.222l-1.483,0.347
				c-0.496,0.104-1.004,0.143-1.507,0.216c-0.251,0.029-0.503,0.073-0.756,0.091l-0.761,0.021l-0.761,0.02
				c-0.254,0.006-0.508,0.017-0.76-0.014l-1.518-0.117c-0.506-0.043-1.001-0.165-1.502-0.244c-0.25-0.046-0.5-0.087-0.749-0.14
				l-0.732-0.208l-0.732-0.208l-0.366-0.105c-0.12-0.04-0.237-0.092-0.355-0.137l-1.416-0.561c-0.904-0.456-1.83-0.883-2.66-1.472
				l-0.637-0.414c-0.218-0.131-0.402-0.309-0.604-0.46c-0.392-0.321-0.804-0.618-1.177-0.96l-1.092-1.056
				c-0.359-0.356-0.667-0.762-1.002-1.141c-1.271-1.567-2.36-3.301-3.084-5.188C1.437,38.68,0.95,36.706,0.8,34.699
				c-0.048-0.5-0.026-1.005-0.042-1.506L0.75,32.44l0.047-0.751c0.085-0.998,0.211-1.996,0.454-2.969
				C2.183,24.824,4.318,21.242,7.305,18.645"/>
			<g clip-path="url(#SVGID_37_)">
				<defs>
					<path id="SVGID_38_" d="M36.37,0l-0.866,2.772c-3.97,2.321-7.658,3.489-10.656,4.704C7.05,13.696,8.415,18.327,8.481,18.523
						c-2.978-6.273,7.993-9.918,19.831-14.67C32.745,2.203,35.415,0.615,36.37,0"/>
				</defs>
				<clipPath id="SVGID_39_">
					<use xlink:href="#SVGID_38_"  overflow="visible"/>
				</clipPath>
				
					<linearGradient id="SVGID_40_" gradientUnits="userSpaceOnUse" x1="-157.8145" y1="279.5703" x2="-157.5646" y2="279.5703" gradientTransform="matrix(-107.7777 47.1448 47.1448 107.7777 -30159.2422 -22685.9043)">
					<stop  offset="0" style="stop-color:#E7BC55"/>
					<stop  offset="0.999" style="stop-color:#92722F"/>
					<stop  offset="1" style="stop-color:#92722F"/>
				</linearGradient>
				<polygon clip-path="url(#SVGID_39_)" fill="url(#SVGID_40_)" points="43.171,15.548 10.461,29.859 -1.297,2.975 31.413,-11.333 
									"/>
			</g>
			<g clip-path="url(#SVGID_37_)">
				<defs>
					<path id="SVGID_41_" d="M35.111,4.034l-0.838,2.684c-3.179,1.608-6.116,2.577-8.585,3.578
						c-17.8,6.22-16.435,10.851-16.369,11.047c-2.977-6.272,7.994-9.919,19.832-14.67C31.731,5.712,33.715,4.773,35.111,4.034"/>
				</defs>
				<clipPath id="SVGID_42_">
					<use xlink:href="#SVGID_41_"  overflow="visible"/>
				</clipPath>
				
					<linearGradient id="SVGID_43_" gradientUnits="userSpaceOnUse" x1="-157.8149" y1="279.4961" x2="-157.565" y2="279.4961" gradientTransform="matrix(-107.7777 47.1448 47.1448 107.7777 -30154.5547 -22675.1543)">
					<stop  offset="0" style="stop-color:#E7BC55"/>
					<stop  offset="0.999" style="stop-color:#92722F"/>
					<stop  offset="1" style="stop-color:#92722F"/>
				</linearGradient>
				<polygon clip-path="url(#SVGID_42_)" fill="url(#SVGID_43_)" points="41.466,18.562 10.961,31.909 -0.015,6.813 30.49,-6.53 
									"/>
			</g>
			<g clip-path="url(#SVGID_37_)">
				<defs>
					<path id="SVGID_44_" d="M33.916,7.86l-0.822,2.635c-2.405,1.069-4.632,1.836-6.568,2.621
						c-17.8,6.221-16.435,10.852-16.369,11.047C7.179,17.89,18.15,14.244,29.988,9.493C31.502,8.929,32.811,8.373,33.916,7.86"/>
				</defs>
				<clipPath id="SVGID_45_">
					<use xlink:href="#SVGID_44_"  overflow="visible"/>
				</clipPath>
				
					<linearGradient id="SVGID_46_" gradientUnits="userSpaceOnUse" x1="-157.8145" y1="279.4219" x2="-157.5648" y2="279.4219" gradientTransform="matrix(-107.7777 47.1448 47.1448 107.7777 -30149.8672 -22664.4043)">
					<stop  offset="0" style="stop-color:#E7BC55"/>
					<stop  offset="0.999" style="stop-color:#92722F"/>
					<stop  offset="1" style="stop-color:#92722F"/>
				</linearGradient>
				<polygon clip-path="url(#SVGID_45_)" fill="url(#SVGID_46_)" points="39.902,21.544 11.473,33.982 1.193,10.478 29.622,-1.958 
									"/>
			</g>
			<g clip-path="url(#SVGID_37_)">
				<defs>
					<path id="SVGID_47_" d="M32.764,11.553l-0.812,2.598c-1.652,0.666-3.196,1.22-4.589,1.785
						c-17.799,6.22-16.434,10.853-16.368,11.049c-2.977-6.274,7.993-9.92,19.832-14.671C31.514,12.057,32.161,11.802,32.764,11.553"
						/>
				</defs>
				<clipPath id="SVGID_48_">
					<use xlink:href="#SVGID_47_"  overflow="visible"/>
				</clipPath>
				
					<linearGradient id="SVGID_49_" gradientUnits="userSpaceOnUse" x1="-157.8145" y1="279.3477" x2="-157.5643" y2="279.3477" gradientTransform="matrix(-107.7777 47.1448 47.1448 107.7777 -30145.1797 -22653.7793)">
					<stop  offset="0" style="stop-color:#E7BC55"/>
					<stop  offset="0.999" style="stop-color:#92722F"/>
					<stop  offset="1" style="stop-color:#92722F"/>
				</linearGradient>
				<polygon clip-path="url(#SVGID_48_)" fill="url(#SVGID_49_)" points="38.43,24.505 11.991,36.072 2.352,14.031 28.79,2.466 				
					"/>
			</g>
			<g clip-path="url(#SVGID_37_)">
				<defs>
					<path id="SVGID_50_" d="M31.643,15.143l-0.809,2.591c-0.924,0.354-1.805,0.687-2.633,1.022
						C10.401,24.977,11.767,29.61,11.832,29.806C8.856,23.534,19.813,19.89,31.643,15.143"/>
				</defs>
				<clipPath id="SVGID_51_">
					<use xlink:href="#SVGID_50_"  overflow="visible"/>
				</clipPath>
				
					<linearGradient id="SVGID_52_" gradientUnits="userSpaceOnUse" x1="-157.8145" y1="279.2725" x2="-157.5646" y2="279.2725" gradientTransform="matrix(-107.7777 47.1448 47.1448 107.7777 -30140.4922 -22643.0293)">
					<stop  offset="0" style="stop-color:#E7BC55"/>
					<stop  offset="0.999" style="stop-color:#92722F"/>
					<stop  offset="1" style="stop-color:#92722F"/>
				</linearGradient>
				<polygon clip-path="url(#SVGID_51_)" fill="url(#SVGID_52_)" points="37.025,27.451 12.516,38.172 3.474,17.497 27.983,6.776 
									"/>
			</g>
			<g clip-path="url(#SVGID_37_)">
				<defs>
					<path id="SVGID_53_" d="M30.519,18.745l-0.799,2.56c-0.23,0.091-0.458,0.18-0.68,0.271C11.24,27.799,12.604,32.43,12.67,32.626
						C9.861,26.704,19.476,23.123,30.519,18.745"/>
				</defs>
				<clipPath id="SVGID_54_">
					<use xlink:href="#SVGID_53_"  overflow="visible"/>
				</clipPath>
				
					<linearGradient id="SVGID_55_" gradientUnits="userSpaceOnUse" x1="-157.8145" y1="279.1973" x2="-157.5649" y2="279.1973" gradientTransform="matrix(-107.7777 47.1448 47.1448 107.7777 -30135.8047 -22632.2793)">
					<stop  offset="0" style="stop-color:#E7BC55"/>
					<stop  offset="0.999" style="stop-color:#92722F"/>
					<stop  offset="1" style="stop-color:#92722F"/>
				</linearGradient>
				<polygon clip-path="url(#SVGID_54_)" fill="url(#SVGID_55_)" points="35.614,30.396 13.179,40.21 4.765,20.974 27.2,11.16 				
					"/>
			</g>
			<g clip-path="url(#SVGID_37_)">
				<defs>
					<path id="SVGID_56_" d="M29.395,22.341l-0.782,2.505c-16.47,5.996-15.17,10.409-15.104,10.599
						C10.867,29.879,19.21,26.379,29.395,22.341"/>
				</defs>
				<clipPath id="SVGID_57_">
					<use xlink:href="#SVGID_56_"  overflow="visible"/>
				</clipPath>
				
					<linearGradient id="SVGID_58_" gradientUnits="userSpaceOnUse" x1="-157.8149" y1="279.123" x2="-157.5651" y2="279.123" gradientTransform="matrix(-107.7777 47.1448 47.1448 107.7777 -30131.1484 -22621.5293)">
					<stop  offset="0" style="stop-color:#E7BC55"/>
					<stop  offset="0.999" style="stop-color:#92722F"/>
					<stop  offset="1" style="stop-color:#92722F"/>
				</linearGradient>
				<polygon clip-path="url(#SVGID_57_)" fill="url(#SVGID_58_)" points="34.207,33.342 13.842,42.25 6.055,24.444 26.419,15.538 
									"/>
			</g>
			<g clip-path="url(#SVGID_37_)">
				<defs>
					<path id="SVGID_59_" d="M28.271,25.943l-0.767,2.46c-14.418,5.616-13.221,9.681-13.158,9.863
						C11.876,33.063,19.008,29.665,28.271,25.943"/>
				</defs>
				<clipPath id="SVGID_60_">
					<use xlink:href="#SVGID_59_"  overflow="visible"/>
				</clipPath>
				
					<linearGradient id="SVGID_61_" gradientUnits="userSpaceOnUse" x1="-157.8149" y1="279.0488" x2="-157.5648" y2="279.0488" gradientTransform="matrix(-107.7777 47.1448 47.1448 107.7777 -30126.4609 -22610.9043)">
					<stop  offset="0" style="stop-color:#E7BC55"/>
					<stop  offset="0.999" style="stop-color:#92722F"/>
					<stop  offset="1" style="stop-color:#92722F"/>
				</linearGradient>
				<polygon clip-path="url(#SVGID_60_)" fill="url(#SVGID_61_)" points="32.794,36.287 14.509,44.287 7.352,27.926 25.638,19.924 
									"/>
			</g>
			<g clip-path="url(#SVGID_37_)">
				<defs>
					<path id="SVGID_62_" d="M27.141,29.567l-0.765,2.452c-12.338,5.2-11.25,8.893-11.191,9.066
						C12.892,36.258,18.866,32.985,27.141,29.567"/>
				</defs>
				<clipPath id="SVGID_63_">
					<use xlink:href="#SVGID_62_"  overflow="visible"/>
				</clipPath>
				
					<linearGradient id="SVGID_64_" gradientUnits="userSpaceOnUse" x1="-157.8145" y1="278.9746" x2="-157.5653" y2="278.9746" gradientTransform="matrix(-107.7777 47.1448 47.1448 107.7777 -30121.7734 -22600.1543)">
					<stop  offset="0" style="stop-color:#E7BC55"/>
					<stop  offset="0.999" style="stop-color:#92722F"/>
					<stop  offset="1" style="stop-color:#92722F"/>
				</linearGradient>
				<polygon clip-path="url(#SVGID_63_)" fill="url(#SVGID_64_)" points="31.369,39.236 15.18,46.316 8.663,31.418 24.852,24.333 
									"/>
			</g>
			<g clip-path="url(#SVGID_37_)">
				<defs>
					<path id="SVGID_65_" d="M25.999,33.223l-0.778,2.496c-10.225,4.731-9.254,8.022-9.198,8.188
						C13.918,39.473,18.784,36.352,25.999,33.223"/>
				</defs>
				<clipPath id="SVGID_66_">
					<use xlink:href="#SVGID_65_"  overflow="visible"/>
				</clipPath>
				
					<linearGradient id="SVGID_67_" gradientUnits="userSpaceOnUse" x1="-157.8154" y1="278.8994" x2="-157.565" y2="278.8994" gradientTransform="matrix(-107.7777 47.1448 47.1448 107.7777 -30117.0859 -22589.4043)">
					<stop  offset="0" style="stop-color:#E7BC55"/>
					<stop  offset="0.999" style="stop-color:#92722F"/>
					<stop  offset="1" style="stop-color:#92722F"/>
				</linearGradient>
				<polygon clip-path="url(#SVGID_66_)" fill="url(#SVGID_67_)" points="29.922,42.191 15.858,48.342 9.995,34.939 24.059,28.787 
									"/>
			</g>
			<g clip-path="url(#SVGID_37_)">
				<defs>
					<path id="SVGID_68_" d="M24.839,36.94l-0.81,2.593c-8.062,4.194-7.221,7.041-7.169,7.193
						C14.956,42.714,18.756,39.779,24.839,36.94"/>
				</defs>
				<clipPath id="SVGID_69_">
					<use xlink:href="#SVGID_68_"  overflow="visible"/>
				</clipPath>
				
					<linearGradient id="SVGID_70_" gradientUnits="userSpaceOnUse" x1="-157.8149" y1="278.8252" x2="-157.5652" y2="278.8252" gradientTransform="matrix(-107.7777 47.1448 47.1448 107.7777 -30112.3672 -22578.6543)">
					<stop  offset="0" style="stop-color:#E7BC55"/>
					<stop  offset="0.999" style="stop-color:#92722F"/>
					<stop  offset="1" style="stop-color:#92722F"/>
				</linearGradient>
				<polygon clip-path="url(#SVGID_69_)" fill="url(#SVGID_70_)" points="28.432,45.154 16.543,50.355 11.363,38.513 23.251,33.312 
									"/>
			</g>
			<g clip-path="url(#SVGID_37_)">
				<defs>
					<path id="SVGID_71_" d="M23.646,40.759l-0.862,2.764c-5.824,3.546-5.132,5.887-5.085,6.024
						C16.017,46.004,18.785,43.299,23.646,40.759"/>
				</defs>
				<clipPath id="SVGID_72_">
					<use xlink:href="#SVGID_71_"  overflow="visible"/>
				</clipPath>
				
					<linearGradient id="SVGID_73_" gradientUnits="userSpaceOnUse" x1="-157.8149" y1="278.75" x2="-157.5653" y2="278.75" gradientTransform="matrix(-107.7777 47.1448 47.1448 107.7777 -30107.6172 -22567.7793)">
					<stop  offset="0" style="stop-color:#E7BC55"/>
					<stop  offset="0.999" style="stop-color:#92722F"/>
					<stop  offset="1" style="stop-color:#92722F"/>
				</linearGradient>
				<polygon clip-path="url(#SVGID_72_)" fill="url(#SVGID_73_)" points="26.873,48.135 17.242,52.348 12.791,42.171 22.421,37.959 
									"/>
			</g>
			<g clip-path="url(#SVGID_37_)">
				<defs>
					<path id="SVGID_74_" d="M22.396,44.768l-0.959,3.071c-3.446,2.696-2.938,4.411-2.899,4.528
						C17.114,49.37,18.876,46.972,22.396,44.768"/>
				</defs>
				<clipPath id="SVGID_75_">
					<use xlink:href="#SVGID_74_"  overflow="visible"/>
				</clipPath>
				
					<linearGradient id="SVGID_76_" gradientUnits="userSpaceOnUse" x1="-157.8154" y1="278.6738" x2="-157.5645" y2="278.6738" gradientTransform="matrix(-107.7777 47.1448 47.1448 107.7777 -30102.7109 -22556.6543)">
					<stop  offset="0" style="stop-color:#E7BC55"/>
					<stop  offset="0.999" style="stop-color:#92722F"/>
					<stop  offset="1" style="stop-color:#92722F"/>
				</linearGradient>
				<polygon clip-path="url(#SVGID_75_)" fill="url(#SVGID_76_)" points="25.185,51.146 17.962,54.306 14.324,45.988 21.547,42.829 
									"/>
			</g>
		</g>
		<g>
			<defs>
				<rect id="SVGID_77_" x="0.75" y="0" width="39.669" height="52.993"/>
			</defs>
			<clipPath id="SVGID_78_">
				<use xlink:href="#SVGID_77_"  overflow="visible"/>
			</clipPath>
			<g clip-path="url(#SVGID_78_)">
				<defs>
					<path id="SVGID_79_" d="M36.37,0l-0.866,2.772c-3.97,2.321-7.658,3.489-10.656,4.704C7.05,13.696,8.415,18.327,8.481,18.523
						c-2.978-6.273,7.993-9.918,19.831-14.67C32.745,2.203,35.415,0.615,36.37,0"/>
				</defs>
				<clipPath id="SVGID_80_">
					<use xlink:href="#SVGID_79_"  overflow="visible"/>
				</clipPath>
			</g>
			<g clip-path="url(#SVGID_78_)">
				<defs>
					<path id="SVGID_81_" d="M35.111,4.034l-0.838,2.684c-3.179,1.608-6.116,2.577-8.585,3.578
						c-17.8,6.22-16.435,10.851-16.369,11.047c-2.977-6.272,7.994-9.919,19.832-14.67C31.731,5.712,33.715,4.773,35.111,4.034"/>
				</defs>
				<clipPath id="SVGID_82_">
					<use xlink:href="#SVGID_81_"  overflow="visible"/>
				</clipPath>
			</g>
			<g clip-path="url(#SVGID_78_)">
				<defs>
					<path id="SVGID_83_" d="M33.916,7.86l-0.822,2.635c-2.405,1.069-4.632,1.836-6.568,2.621
						c-17.8,6.221-16.435,10.852-16.369,11.047C7.179,17.89,18.15,14.244,29.988,9.493C31.502,8.929,32.811,8.373,33.916,7.86"/>
				</defs>
				<clipPath id="SVGID_84_">
					<use xlink:href="#SVGID_83_"  overflow="visible"/>
				</clipPath>
			</g>
			<g clip-path="url(#SVGID_78_)">
				<defs>
					<path id="SVGID_85_" d="M32.764,11.553l-0.812,2.598c-1.652,0.666-3.196,1.22-4.589,1.785
						c-17.799,6.22-16.434,10.853-16.368,11.049c-2.977-6.274,7.993-9.92,19.832-14.671C31.514,12.057,32.161,11.802,32.764,11.553"
						/>
				</defs>
				<clipPath id="SVGID_86_">
					<use xlink:href="#SVGID_85_"  overflow="visible"/>
				</clipPath>
			</g>
			<g clip-path="url(#SVGID_78_)">
				<defs>
					<path id="SVGID_87_" d="M31.643,15.143l-0.809,2.591c-0.924,0.354-1.805,0.687-2.633,1.022
						C10.401,24.977,11.767,29.61,11.832,29.806C8.856,23.534,19.813,19.89,31.643,15.143"/>
				</defs>
				<clipPath id="SVGID_88_">
					<use xlink:href="#SVGID_87_"  overflow="visible"/>
				</clipPath>
			</g>
			<g clip-path="url(#SVGID_78_)">
				<defs>
					<path id="SVGID_89_" d="M30.519,18.745l-0.799,2.56c-0.23,0.091-0.458,0.18-0.68,0.271C11.24,27.799,12.604,32.43,12.67,32.626
						C9.861,26.704,19.476,23.123,30.519,18.745"/>
				</defs>
				<clipPath id="SVGID_90_">
					<use xlink:href="#SVGID_89_"  overflow="visible"/>
				</clipPath>
			</g>
			<g clip-path="url(#SVGID_78_)">
				<defs>
					<path id="SVGID_91_" d="M29.395,22.341l-0.782,2.505c-16.47,5.996-15.17,10.409-15.104,10.599
						C10.867,29.879,19.21,26.379,29.395,22.341"/>
				</defs>
				<clipPath id="SVGID_92_">
					<use xlink:href="#SVGID_91_"  overflow="visible"/>
				</clipPath>
			</g>
			<g clip-path="url(#SVGID_78_)">
				<defs>
					<path id="SVGID_93_" d="M28.271,25.943l-0.767,2.46c-14.418,5.616-13.221,9.681-13.158,9.863
						C11.876,33.063,19.008,29.665,28.271,25.943"/>
				</defs>
				<clipPath id="SVGID_94_">
					<use xlink:href="#SVGID_93_"  overflow="visible"/>
				</clipPath>
			</g>
			<g clip-path="url(#SVGID_78_)">
				<defs>
					<path id="SVGID_95_" d="M27.141,29.567l-0.765,2.452c-12.338,5.2-11.25,8.893-11.191,9.066
						C12.892,36.258,18.866,32.985,27.141,29.567"/>
				</defs>
				<clipPath id="SVGID_96_">
					<use xlink:href="#SVGID_95_"  overflow="visible"/>
				</clipPath>
			</g>
			<g clip-path="url(#SVGID_78_)">
				<defs>
					<path id="SVGID_97_" d="M25.999,33.223l-0.778,2.496c-10.225,4.731-9.254,8.022-9.198,8.188
						C13.918,39.473,18.784,36.352,25.999,33.223"/>
				</defs>
				<clipPath id="SVGID_98_">
					<use xlink:href="#SVGID_97_"  overflow="visible"/>
				</clipPath>
			</g>
			<g clip-path="url(#SVGID_78_)">
				<defs>
					<path id="SVGID_99_" d="M24.839,36.94l-0.81,2.593c-8.062,4.194-7.221,7.041-7.169,7.193
						C14.956,42.714,18.756,39.779,24.839,36.94"/>
				</defs>
				<clipPath id="SVGID_100_">
					<use xlink:href="#SVGID_99_"  overflow="visible"/>
				</clipPath>
			</g>
			<g clip-path="url(#SVGID_78_)">
				<defs>
					<path id="SVGID_101_" d="M23.646,40.759l-0.862,2.764c-5.824,3.546-5.132,5.887-5.085,6.024
						C16.017,46.004,18.785,43.299,23.646,40.759"/>
				</defs>
				<clipPath id="SVGID_102_">
					<use xlink:href="#SVGID_101_"  overflow="visible"/>
				</clipPath>
			</g>
			<g clip-path="url(#SVGID_78_)">
				<defs>
					<path id="SVGID_103_" d="M22.396,44.768l-0.959,3.071c-3.446,2.696-2.938,4.411-2.899,4.528
						C17.114,49.37,18.876,46.972,22.396,44.768"/>
				</defs>
				<clipPath id="SVGID_104_">
					<use xlink:href="#SVGID_103_"  overflow="visible"/>
				</clipPath>
			</g>
		</g>
	</g>
</g>
<image display="none" overflow="visible" width="184" height="53" xlink:href="../logo.png"  transform="matrix(1 0 0 1 0.1499 4.882813e-004)">
</image>
</svg>
