<?xml version="1.0" encoding="utf-8"?>
<!-- Generator: Adobe Illustrator 15.0.0, SVG Export Plug-In . SVG Version: 6.00 Build 0)  -->
<!DOCTYPE svg PUBLIC "-//W3C//DTD SVG 1.1//EN" "http://www.w3.org/Graphics/SVG/1.1/DTD/svg11.dtd">
<svg version="1.1" id="Layer_1" xmlns="http://www.w3.org/2000/svg" xmlns:xlink="http://www.w3.org/1999/xlink" x="0px" y="0px"
	 width="82.447px" height="79.942px" viewBox="0 0 82.447 79.942" enable-background="new 0 0 82.447 79.942" xml:space="preserve">
<image overflow="visible" width="133" height="767" xlink:href="C:\Users\exsat\Desktop\icns.jpg"  transform="matrix(1 0 0 1 -177.2832 -568.6016)">
</image>
<line fill="none" stroke="#000000" stroke-width="5" stroke-miterlimit="10" x1="-132.95" y1="-31.935" x2="-132.95" y2="-19.935"/>
<line fill="none" stroke="#000000" stroke-width="5" stroke-miterlimit="10" x1="-93.616" y1="-28.268" x2="-93.616" y2="-17.601"/>
<g>
	<g>
		<path fill="none" stroke="#000000" stroke-width="6" stroke-miterlimit="10" d="M69.717-89.935c0,0,0,5.91,0,13.134
			c0,7.225-6.75,13.135-15,13.135H18c-8.25,0-15-5.761-15-12.801s0-12.801,0-12.801"/>
	</g>
	
		<line fill="none" stroke="#000000" stroke-width="6" stroke-linecap="round" stroke-miterlimit="10" x1="-1.949" y1="-89.935" x2="74.385" y2="-89.935"/>
	
		<line fill="none" stroke="#000000" stroke-width="6" stroke-linecap="round" stroke-miterlimit="10" x1="16.051" y1="-62.268" x2="16.051" y2="-54.935"/>
	
		<line fill="#020202" stroke="#000000" stroke-width="6" stroke-linecap="round" stroke-miterlimit="10" x1="56.718" y1="-62.268" x2="56.718" y2="-54.935"/>
	<circle fill="#020202" cx="61.173" cy="-98.487" r="7.833"/>
	
		<line fill="none" stroke="#000000" stroke-width="6" stroke-linecap="round" stroke-miterlimit="10" x1="11.051" y1="-121.935" x2="21.051" y2="-131.268"/>
	<path fill="none" stroke="#000000" stroke-width="6" stroke-linecap="round" stroke-miterlimit="10" d="M18.352-120.126"/>
	<path fill="none" stroke="#000000" stroke-width="6" stroke-linecap="round" stroke-miterlimit="10" d="M3.51-126.893
		c0.666-1.709,3.418-2.959,5.26-2.959c1.875,0,3.705,0.77,5.178,1.707"/>
	
		<line fill="none" stroke="#000000" stroke-width="6" stroke-linecap="round" stroke-miterlimit="10" x1="3" y1="-126.601" x2="3" y2="-92.685"/>
	<path fill="none" stroke="#000000" stroke-width="6" stroke-linecap="round" stroke-miterlimit="10" d="M51.635-78.018
		c0,0,9.383-5.143,9.691-9.738"/>
</g>
<g>
	<path fill="none" stroke="#000000" stroke-width="6" stroke-linecap="round" stroke-miterlimit="10" d="M16.945,64.417"/>
	<path fill="none" stroke="#000000" stroke-width="6" stroke-linecap="round" stroke-miterlimit="10" d="M37.293,64.417"/>
	<polyline fill="none" stroke="#000000" stroke-width="6" stroke-linecap="round" stroke-miterlimit="10" points="39.125,23.721 
		58,23.095 58,64.417 39.459,64.417 	"/>
	<polyline fill="none" stroke="#000000" stroke-width="6" stroke-linecap="round" stroke-miterlimit="10" points="16.945,64.417 
		3,64.417 3,46.292 	"/>
	
		<circle fill="none" stroke="#000000" stroke-width="6" stroke-linecap="round" stroke-miterlimit="10" cx="27.399" cy="66.317" r="10.625"/>
	<path fill="none" stroke="#000000" stroke-width="6" stroke-linecap="round" stroke-miterlimit="10" d="M41.303,22.729"/>
	<path fill="none" stroke="#000000" stroke-width="6" stroke-linecap="round" stroke-miterlimit="10" d="M3,46.292
		c0.367-0.734,6.133-6.688,13-5.5h4.875c2.178-3.936,4.434-10.909,18.223-17.118"/>
	<line fill="none" stroke="#000000" stroke-width="6" stroke-miterlimit="10" x1="58.779" y1="9.231" x2="58.779" y2="78.334"/>
	
		<line fill="none" stroke="#000000" stroke-width="6" stroke-linecap="round" stroke-miterlimit="10" x1="40.752" y1="14.667" x2="79.447" y2="3"/>
</g>
<g>
	<g>
		<path fill="none" stroke="#000000" stroke-width="6" stroke-linecap="round" stroke-miterlimit="10" d="M62.439-333.352
			c0,2.75-2.25,5-5,5H15.105c-2.75,0-5-2.25-5-5v-39.667c0-2.75,2.25-5,5-5h42.334c2.75,0,5,2.25,5,5V-333.352z"/>
	</g>
	<g>
		<g>
			
				<line fill="none" stroke="#000000" stroke-width="6" stroke-linecap="round" stroke-miterlimit="10" x1="14.522" y1="-395.053" x2="20.772" y2="-402.636"/>
			
				<line fill="none" stroke="#000000" stroke-width="6" stroke-linecap="round" stroke-miterlimit="10" x1="14.522" y1="-395.053" x2="20.355" y2="-387.053"/>
		</g>
		<g>
			
				<line fill="none" stroke="#000000" stroke-width="6" stroke-linecap="round" stroke-miterlimit="10" x1="59.772" y1="-395.403" x2="53.522" y2="-402.986"/>
			
				<line fill="none" stroke="#000000" stroke-width="6" stroke-linecap="round" stroke-miterlimit="10" x1="59.772" y1="-395.403" x2="53.938" y2="-387.403"/>
		</g>
		
			<line fill="none" stroke="#000000" stroke-width="6" stroke-linecap="round" stroke-miterlimit="10" x1="17.647" y1="-395.053" x2="56.647" y2="-395.053"/>
	</g>
	<g>
		<g>
			
				<line fill="none" stroke="#000000" stroke-width="6" stroke-linecap="round" stroke-miterlimit="10" x1="78.949" y1="-375.809" x2="86.555" y2="-369.586"/>
			
				<line fill="none" stroke="#000000" stroke-width="6" stroke-linecap="round" stroke-miterlimit="10" x1="78.949" y1="-375.809" x2="70.97" y2="-369.947"/>
		</g>
		<g>
			
				<line fill="none" stroke="#000000" stroke-width="6" stroke-linecap="round" stroke-miterlimit="10" x1="79.46" y1="-330.561" x2="87.021" y2="-336.838"/>
			
				<line fill="none" stroke="#000000" stroke-width="6" stroke-linecap="round" stroke-miterlimit="10" x1="79.46" y1="-330.561" x2="71.439" y2="-336.366"/>
		</g>
		
			<line fill="none" stroke="#000000" stroke-width="6" stroke-linecap="round" stroke-miterlimit="10" x1="78.96" y1="-372.685" x2="79.099" y2="-333.685"/>
	</g>
</g>
<g>
	
		<line fill="none" stroke="#000000" stroke-width="6" stroke-linecap="round" stroke-miterlimit="10" x1="8.729" y1="-268.977" x2="8.729" y2="-219.227"/>
	
		<line fill="none" stroke="#000000" stroke-width="6" stroke-linecap="round" stroke-miterlimit="10" x1="82.479" y1="-265.602" x2="82.479" y2="-219.227"/>
	
		<line fill="none" stroke="#000000" stroke-width="6" stroke-linecap="round" stroke-miterlimit="10" x1="10.104" y1="-257.852" x2="81.729" y2="-257.852"/>
	
		<line fill="none" stroke="#000000" stroke-width="6" stroke-linecap="round" stroke-miterlimit="10" x1="10.104" y1="-240.102" x2="81.729" y2="-240.102"/>
	<g>
		<path fill="none" stroke="#000000" stroke-width="6" stroke-linecap="round" stroke-miterlimit="10" d="M35.479-259.476v-9.5
			c0-2.75,2.25-5,5-5h26.75c2.75,0,5,2.25,5,5v9.5"/>
	</g>
	<ellipse cx="22.559" cy="-269.401" rx="7.393" ry="7.25"/>
</g>
</svg>
